<svg width="679" height="720" viewBox="0 0 679 720" fill="none" xmlns="http://www.w3.org/2000/svg">
<path d="M625.75 0H521.409C509.949 0 499.484 6.48209 494.354 16.7156L339.094 327.193C333.964 337.452 323.499 343.908 312.039 343.908H207.673C185.186 343.908 170.561 320.251 180.618 300.141L308.823 43.7669C318.879 23.6571 304.254 0 281.768 0H177.427C165.967 0 155.502 6.48209 150.372 16.7156L8.63943 300.141C-1.41688 320.251 13.2082 343.908 35.6945 343.908H128.473C145.191 343.908 158.718 357.459 158.718 374.149V485.621C158.718 502.337 172.271 515.862 188.964 515.862H300.451C317.169 515.862 330.697 502.311 330.697 485.621V374.149C330.697 357.434 344.25 343.908 360.942 343.908H472.429C489.147 343.908 502.675 357.459 502.675 374.149V485.621C502.675 502.337 516.228 515.862 532.92 515.862H644.408C661.126 515.862 674.653 502.311 674.653 485.621V374.149C674.653 357.434 661.1 343.908 644.408 343.908H551.629C529.143 343.908 514.518 320.251 524.574 300.141L652.779 43.7669C662.861 23.6571 648.236 0 625.75 0Z" fill="white"/>
<path d="M31.3625 640.659C24.2685 640.124 20.7215 642.968 20.7215 649.191V649.693H31.3625V662.139H20.7215V699.879H7.77156V662.139H0.543701V649.693H7.77156V649.191C7.77156 642.098 9.74584 636.711 13.6944 633.031C17.6429 629.35 23.5323 627.744 31.3625 628.213V640.659Z" fill="white"/>
<path d="M78.2001 693.656C73.0469 698.741 66.7559 701.284 59.3273 701.284C51.8987 701.284 45.6078 698.741 40.4546 693.656C35.3683 688.503 32.8252 682.213 32.8252 674.786C32.8252 667.358 35.3683 661.102 40.4546 656.016C45.6078 650.864 51.8987 648.287 59.3273 648.287C66.7559 648.287 73.0469 650.864 78.2001 656.016C83.3532 661.102 85.9298 667.358 85.9298 674.786C85.9298 682.213 83.3532 688.503 78.2001 693.656ZM49.5898 684.723C52.1998 687.332 55.4457 688.637 59.3273 688.637C63.2089 688.637 66.4548 687.332 69.0648 684.723C71.6749 682.113 72.9799 678.801 72.9799 674.786C72.9799 670.771 71.6749 667.459 69.0648 664.849C66.4548 662.239 63.2089 660.934 59.3273 660.934C55.4457 660.934 52.1998 662.239 49.5898 664.849C47.0466 667.459 45.7751 670.771 45.7751 674.786C45.7751 678.801 47.0466 682.113 49.5898 684.723Z" fill="white"/>
<path d="M128.168 649.693H141.118V699.879H128.168V694.258C125.022 698.942 120.036 701.284 113.21 701.284C107.722 701.284 103.171 699.444 99.5574 695.764C96.0104 692.083 94.2369 686.998 94.2369 680.507V649.693H107.187V678.901C107.187 682.247 108.09 684.823 109.897 686.63C111.704 688.37 114.113 689.24 117.125 689.24C120.471 689.24 123.148 688.202 125.156 686.128C127.164 684.054 128.168 680.942 128.168 676.793V649.693Z" fill="white"/>
<path d="M165.928 658.325C167.133 655.113 169.107 652.704 171.851 651.098C174.662 649.492 177.774 648.689 181.187 648.689V663.143C177.238 662.674 173.691 663.477 170.546 665.552C167.467 667.626 165.928 671.072 165.928 675.89V699.879H152.978V649.693H165.928V658.325Z" fill="white"/>
<path d="M218.844 662.139H207.5V683.016C207.5 684.756 207.935 686.028 208.805 686.831C209.675 687.634 210.947 688.102 212.62 688.236C214.293 688.303 216.367 688.269 218.844 688.135V699.879C209.943 700.883 203.652 700.046 199.971 697.37C196.357 694.693 194.55 689.909 194.55 683.016V662.139H185.816V649.693H194.55V639.555L207.5 635.64V649.693H218.844V662.139Z" fill="white"/>
<path d="M261.779 649.693H275.632L257.362 699.879C254.752 707.106 251.272 712.325 246.921 715.537C242.638 718.816 237.284 720.288 230.86 719.954V707.909C234.34 707.976 237.084 707.24 239.091 705.701C241.166 704.162 242.806 701.686 244.01 698.273L223.431 649.693H237.585L250.636 683.418L261.779 649.693Z" fill="white"/>
<path d="M308.799 640.659C301.705 640.124 298.158 642.968 298.158 649.191V649.693H308.799V662.139H298.158V699.879H285.208V662.139H277.98V649.693H285.208V649.191C285.208 642.098 287.182 636.711 291.131 633.031C295.079 629.35 300.969 627.744 308.799 628.213V640.659Z" fill="white"/>
<path d="M355.637 693.656C350.483 698.741 344.192 701.284 336.764 701.284C329.335 701.284 323.044 698.741 317.891 693.656C312.805 688.503 310.262 682.213 310.262 674.786C310.262 667.358 312.805 661.102 317.891 656.016C323.044 650.864 329.335 648.287 336.764 648.287C344.192 648.287 350.483 650.864 355.637 656.016C360.79 661.102 363.366 667.358 363.366 674.786C363.366 682.213 360.79 688.503 355.637 693.656ZM327.026 684.723C329.636 687.332 332.882 688.637 336.764 688.637C340.645 688.637 343.891 687.332 346.501 684.723C349.111 682.113 350.416 678.801 350.416 674.786C350.416 670.771 349.111 667.459 346.501 664.849C343.891 662.239 340.645 660.934 336.764 660.934C332.882 660.934 329.636 662.239 327.026 664.849C324.483 667.459 323.212 670.771 323.212 674.786C323.212 678.801 324.483 682.113 327.026 684.723Z" fill="white"/>
<path d="M405.604 649.693H418.554V699.879H405.604V694.258C402.459 698.942 397.473 701.284 390.647 701.284C385.159 701.284 380.608 699.444 376.994 695.764C373.447 692.083 371.673 686.998 371.673 680.507V649.693H384.623V678.901C384.623 682.247 385.527 684.823 387.334 686.63C389.141 688.37 391.55 689.24 394.562 689.24C397.908 689.24 400.585 688.202 402.593 686.128C404.6 684.054 405.604 680.942 405.604 676.793V649.693Z" fill="white"/>
<path d="M443.365 658.325C444.569 655.113 446.543 652.704 449.287 651.098C452.098 649.492 455.21 648.689 458.623 648.689V663.143C454.675 662.674 451.128 663.477 447.982 665.552C444.904 667.626 443.365 671.072 443.365 675.89V699.879H430.415V649.693H443.365V658.325Z" fill="white"/>
<path d="M491.294 699.879V626.607H504.244V699.879H491.294Z" fill="white"/>
<path d="M554.244 649.693H567.193V699.879H554.244V693.957C550.362 698.842 544.908 701.284 537.88 701.284C531.188 701.284 525.432 698.741 520.614 693.656C515.862 688.503 513.486 682.213 513.486 674.786C513.486 667.358 515.862 661.102 520.614 656.016C525.432 650.864 531.188 648.287 537.88 648.287C544.908 648.287 550.362 650.73 554.244 655.615V649.693ZM530.351 685.024C532.961 687.634 536.274 688.938 540.29 688.938C544.305 688.938 547.618 687.634 550.228 685.024C552.905 682.347 554.244 678.935 554.244 674.786C554.244 670.637 552.905 667.258 550.228 664.648C547.618 661.972 544.305 660.633 540.29 660.633C536.274 660.633 532.961 661.972 530.351 664.648C527.741 667.258 526.436 670.637 526.436 674.786C526.436 678.935 527.741 682.347 530.351 685.024Z" fill="white"/>
<path d="M608.149 648.287C614.908 648.287 620.664 650.864 625.415 656.016C630.234 661.102 632.643 667.358 632.643 674.786C632.643 682.213 630.234 688.503 625.415 693.656C620.664 698.741 614.908 701.284 608.149 701.284C601.122 701.284 595.701 698.842 591.886 693.957V699.879H578.936V629.618H591.886V655.615C595.701 650.73 601.122 648.287 608.149 648.287ZM595.801 685.024C598.411 687.634 601.724 688.938 605.74 688.938C609.755 688.938 613.068 687.634 615.678 685.024C618.355 682.347 619.693 678.935 619.693 674.786C619.693 670.637 618.355 667.258 615.678 664.648C613.068 661.972 609.755 660.633 605.74 660.633C601.724 660.633 598.411 661.972 595.801 664.648C593.191 667.258 591.886 670.637 591.886 674.786C591.886 678.935 593.191 682.347 595.801 685.024Z" fill="white"/>
<path d="M652.644 663.946C652.644 665.284 653.514 666.388 655.254 667.258C657.061 668.061 659.236 668.797 661.779 669.466C664.322 670.068 666.865 670.871 669.408 671.875C671.952 672.812 674.093 674.418 675.833 676.693C677.64 678.968 678.544 681.812 678.544 685.225C678.544 690.377 676.603 694.359 672.721 697.169C668.907 699.912 664.121 701.284 658.366 701.284C648.06 701.284 641.032 697.303 637.285 689.34L648.528 683.016C650 687.366 653.28 689.541 658.366 689.541C662.984 689.541 665.293 688.102 665.293 685.225C665.293 683.886 664.389 682.816 662.582 682.013C660.842 681.143 658.701 680.373 656.157 679.704C653.614 679.035 651.071 678.198 648.528 677.195C645.985 676.191 643.81 674.619 642.003 672.477C640.263 670.269 639.393 667.526 639.393 664.247C639.393 659.295 641.2 655.414 644.814 652.603C648.495 649.726 653.045 648.287 658.466 648.287C662.549 648.287 666.263 649.224 669.609 651.098C672.955 652.905 675.599 655.514 677.54 658.927L666.497 664.949C664.891 661.537 662.214 659.83 658.466 659.83C656.793 659.83 655.388 660.198 654.25 660.934C653.179 661.67 652.644 662.674 652.644 663.946Z" fill="white"/>
</svg>
