<svg width="679" height="720" viewBox="0 0 679 720" fill="none" xmlns="http://www.w3.org/2000/svg">
<path d="M625.482 0H521.141C509.681 0 499.217 6.48209 494.086 16.7156L338.826 327.193C333.696 337.452 323.231 343.908 311.771 343.908H207.405C184.919 343.908 170.293 320.251 180.35 300.141L308.555 43.7669C318.611 23.6571 303.986 0 281.5 0H177.159C165.699 0 155.235 6.48209 150.104 16.7156L8.37154 300.141C-1.68477 320.251 12.9403 343.908 35.4266 343.908H128.205C144.923 343.908 158.45 357.459 158.45 374.149V485.621C158.45 502.337 172.004 515.862 188.696 515.862H300.183C316.901 515.862 330.429 502.311 330.429 485.621V374.149C330.429 357.434 343.982 343.908 360.674 343.908H472.161C488.879 343.908 502.407 357.459 502.407 374.149V485.621C502.407 502.337 515.96 515.862 532.652 515.862H644.14C660.858 515.862 674.385 502.311 674.385 485.621V374.149C674.385 357.434 660.832 343.908 644.14 343.908H551.361C528.875 343.908 514.25 320.251 524.306 300.141L652.511 43.7669C662.593 23.6571 647.968 0 625.482 0Z" fill="#0F151C"/>
<path d="M31.0946 640.659C24.0006 640.124 20.4536 642.968 20.4536 649.191V649.693H31.0946V662.139H20.4536V699.879H7.50368V662.139H0.275818V649.693H7.50368V649.191C7.50368 642.098 9.47795 636.711 13.4265 633.031C17.3751 629.35 23.2644 627.744 31.0946 628.213V640.659Z" fill="#0F151C"/>
<path d="M77.9322 693.656C72.779 698.741 66.4881 701.284 59.0594 701.284C51.6308 701.284 45.3399 698.741 40.1867 693.656C35.1004 688.503 32.5573 682.213 32.5573 674.786C32.5573 667.358 35.1004 661.102 40.1867 656.016C45.3399 650.864 51.6308 648.287 59.0594 648.287C66.4881 648.287 72.779 650.864 77.9322 656.016C83.0854 661.102 85.662 667.358 85.662 674.786C85.662 682.213 83.0854 688.503 77.9322 693.656ZM49.3219 684.723C51.932 687.332 55.1778 688.637 59.0594 688.637C62.9411 688.637 66.1869 687.332 68.797 684.723C71.407 682.113 72.712 678.801 72.712 674.786C72.712 670.771 71.407 667.459 68.797 664.849C66.1869 662.239 62.9411 660.934 59.0594 660.934C55.1778 660.934 51.932 662.239 49.3219 664.849C46.7788 667.459 45.5072 670.771 45.5072 674.786C45.5072 678.801 46.7788 682.113 49.3219 684.723Z" fill="#0F151C"/>
<path d="M127.9 649.693H140.85V699.879H127.9V694.258C124.754 698.942 119.768 701.284 112.942 701.284C107.454 701.284 102.903 699.444 99.2895 695.764C95.7425 692.083 93.969 686.998 93.969 680.507V649.693H106.919V678.901C106.919 682.247 107.822 684.823 109.629 686.63C111.436 688.37 113.846 689.24 116.857 689.24C120.203 689.24 122.88 688.202 124.888 686.128C126.896 684.054 127.9 680.942 127.9 676.793V649.693Z" fill="#0F151C"/>
<path d="M165.66 658.325C166.865 655.113 168.839 652.704 171.583 651.098C174.394 649.492 177.506 648.689 180.919 648.689V663.143C176.97 662.674 173.423 663.477 170.278 665.552C167.199 667.626 165.66 671.072 165.66 675.89V699.879H152.71V649.693H165.66V658.325Z" fill="#0F151C"/>
<path d="M218.576 662.139H207.232V683.016C207.232 684.756 207.667 686.028 208.537 686.831C209.407 687.634 210.679 688.102 212.352 688.236C214.025 688.303 216.1 688.269 218.576 688.135V699.879C209.675 700.883 203.384 700.046 199.703 697.37C196.089 694.693 194.282 689.909 194.282 683.016V662.139H185.549V649.693H194.282V639.555L207.232 635.64V649.693H218.576V662.139Z" fill="#0F151C"/>
<path d="M261.511 649.693H275.364L257.094 699.879C254.484 707.106 251.004 712.325 246.654 715.537C242.37 718.816 237.016 720.288 230.592 719.954V707.909C234.072 707.976 236.816 707.24 238.823 705.701C240.898 704.162 242.538 701.686 243.742 698.273L223.163 649.693H237.318L250.368 683.418L261.511 649.693Z" fill="#0F151C"/>
<path d="M308.531 640.659C301.437 640.124 297.89 642.968 297.89 649.191V649.693H308.531V662.139H297.89V699.879H284.94V662.139H277.712V649.693H284.94V649.191C284.94 642.098 286.914 636.711 290.863 633.031C294.812 629.35 300.701 627.744 308.531 628.213V640.659Z" fill="#0F151C"/>
<path d="M355.369 693.656C350.216 698.741 343.925 701.284 336.496 701.284C329.067 701.284 322.776 698.741 317.623 693.656C312.537 688.503 309.994 682.213 309.994 674.786C309.994 667.358 312.537 661.102 317.623 656.016C322.776 650.864 329.067 648.287 336.496 648.287C343.925 648.287 350.216 650.864 355.369 656.016C360.522 661.102 363.098 667.358 363.098 674.786C363.098 682.213 360.522 688.503 355.369 693.656ZM326.758 684.723C329.368 687.332 332.614 688.637 336.496 688.637C340.378 688.637 343.623 687.332 346.233 684.723C348.844 682.113 350.149 678.801 350.149 674.786C350.149 670.771 348.844 667.459 346.233 664.849C343.623 662.239 340.378 660.934 336.496 660.934C332.614 660.934 329.368 662.239 326.758 664.849C324.215 667.459 322.944 670.771 322.944 674.786C322.944 678.801 324.215 682.113 326.758 684.723Z" fill="#0F151C"/>
<path d="M405.336 649.693H418.286V699.879H405.336V694.258C402.191 698.942 397.205 701.284 390.379 701.284C384.891 701.284 380.34 699.444 376.726 695.764C373.179 692.083 371.406 686.998 371.406 680.507V649.693H384.355V678.901C384.355 682.247 385.259 684.823 387.066 686.63C388.873 688.37 391.282 689.24 394.294 689.24C397.64 689.24 400.317 688.202 402.325 686.128C404.332 684.054 405.336 680.942 405.336 676.793V649.693Z" fill="#0F151C"/>
<path d="M443.097 658.325C444.301 655.113 446.276 652.704 449.02 651.098C451.83 649.492 454.942 648.689 458.355 648.689V663.143C454.407 662.674 450.86 663.477 447.714 665.552C444.636 667.626 443.097 671.072 443.097 675.89V699.879H430.147V649.693H443.097V658.325Z" fill="#0F151C"/>
<path d="M491.026 699.879V626.607H503.976V699.879H491.026Z" fill="#0F151C"/>
<path d="M553.976 649.693H566.926V699.879H553.976V693.957C550.094 698.842 544.64 701.284 537.613 701.284C530.92 701.284 525.165 698.741 520.346 693.656C515.594 688.503 513.219 682.213 513.219 674.786C513.219 667.358 515.594 661.102 520.346 656.016C525.165 650.864 530.92 648.287 537.613 648.287C544.64 648.287 550.094 650.73 553.976 655.615V649.693ZM530.084 685.024C532.694 687.634 536.006 688.938 540.022 688.938C544.037 688.938 547.35 687.634 549.96 685.024C552.637 682.347 553.976 678.935 553.976 674.786C553.976 670.637 552.637 667.258 549.96 664.648C547.35 661.972 544.037 660.633 540.022 660.633C536.006 660.633 532.694 661.972 530.084 664.648C527.473 667.258 526.168 670.637 526.168 674.786C526.168 678.935 527.473 682.347 530.084 685.024Z" fill="#0F151C"/>
<path d="M607.881 648.287C614.64 648.287 620.396 650.864 625.148 656.016C629.966 661.102 632.375 667.358 632.375 674.786C632.375 682.213 629.966 688.503 625.148 693.656C620.396 698.741 614.64 701.284 607.881 701.284C600.854 701.284 595.433 698.842 591.618 693.957V699.879H578.668V629.618H591.618V655.615C595.433 650.73 600.854 648.287 607.881 648.287ZM595.533 685.024C598.144 687.634 601.456 688.938 605.472 688.938C609.487 688.938 612.8 687.634 615.41 685.024C618.087 682.347 619.426 678.935 619.426 674.786C619.426 670.637 618.087 667.258 615.41 664.648C612.8 661.972 609.487 660.633 605.472 660.633C601.456 660.633 598.144 661.972 595.533 664.648C592.923 667.258 591.618 670.637 591.618 674.786C591.618 678.935 592.923 682.347 595.533 685.024Z" fill="#0F151C"/>
<path d="M652.376 663.946C652.376 665.284 653.246 666.388 654.986 667.258C656.793 668.061 658.968 668.797 661.511 669.466C664.054 670.068 666.597 670.871 669.141 671.875C671.684 672.812 673.825 674.418 675.565 676.693C677.372 678.968 678.276 681.812 678.276 685.225C678.276 690.377 676.335 694.359 672.453 697.169C668.639 699.912 663.854 701.284 658.098 701.284C647.792 701.284 640.765 697.303 637.017 689.34L648.26 683.016C649.732 687.366 653.012 689.541 658.098 689.541C662.716 689.541 665.025 688.102 665.025 685.225C665.025 683.886 664.121 682.816 662.314 682.013C660.574 681.143 658.433 680.373 655.89 679.704C653.346 679.035 650.803 678.198 648.26 677.195C645.717 676.191 643.542 674.619 641.735 672.477C639.995 670.269 639.125 667.526 639.125 664.247C639.125 659.295 640.932 655.414 644.546 652.603C648.227 649.726 652.778 648.287 658.198 648.287C662.281 648.287 665.995 649.224 669.341 651.098C672.688 652.905 675.331 655.514 677.272 658.927L666.229 664.949C664.623 661.537 661.946 659.83 658.198 659.83C656.525 659.83 655.12 660.198 653.982 660.934C652.911 661.67 652.376 662.674 652.376 663.946Z" fill="#0F151C"/>
</svg>
